<svg xmlns="http://www.w3.org/2000/svg" viewBox="0 0 900 600" width="900" height="600" role="img" aria-label="Vituo vya Afya Tanzania">
  <defs>
    <linearGradient id="h-sky" x1="0" y1="0" x2="0" y2="1">
      <stop offset="0%" stop-color="#60A5FA"/>
      <stop offset="100%" stop-color="#DBEAFE"/>
    </linearGradient>
    <linearGradient id="h-ground" x1="0" y1="0" x2="0" y2="1">
      <stop offset="0%" stop-color="#86EFAC"/>
      <stop offset="100%" stop-color="#22C55E"/>
    </linearGradient>
  </defs>

  <!-- Sky -->
  <rect width="900" height="600" fill="url(#h-sky)"/>

  <!-- Sun -->
  <circle cx="770" cy="105" r="80" fill="#FBBF24" opacity="0.25"/>
  <circle cx="770" cy="105" r="50" fill="#FBBF24"/>

  <!-- Clouds -->
  <g fill="#FFFFFF" opacity="0.9">
    <ellipse cx="140" cy="115" rx="58" ry="20"/>
    <ellipse cx="178" cy="100" rx="38" ry="16"/>
    <ellipse cx="108" cy="104" rx="28" ry="13"/>
    <ellipse cx="430" cy="78" rx="50" ry="17"/>
    <ellipse cx="462" cy="66" rx="32" ry="13"/>
    <ellipse cx="630" cy="140" rx="44" ry="15"/>
  </g>

  <!-- Ground -->
  <path d="M0 455 Q 225 435 450 455 T 900 455 L900 600 L0 600 Z" fill="url(#h-ground)"/>

  <!-- Road -->
  <rect x="0" y="535" width="900" height="65" fill="#94A3B8"/>
  <line x1="0" y1="568" x2="900" y2="568" stroke="#FDE047" stroke-width="6" stroke-dasharray="42 32"/>

  <!-- Trees -->
  <g>
    <rect x="84" y="420" width="14" height="34" rx="4" fill="#92400E"/>
    <circle cx="91" cy="392" r="32" fill="#16A34A"/>
    <circle cx="70" cy="404" r="22" fill="#22C55E"/>
    <circle cx="112" cy="404" r="22" fill="#22C55E"/>
    <rect x="808" y="418" width="14" height="36" rx="4" fill="#92400E"/>
    <circle cx="815" cy="390" r="32" fill="#16A34A"/>
    <circle cx="794" cy="402" r="22" fill="#22C55E"/>
    <circle cx="836" cy="402" r="22" fill="#22C55E"/>
  </g>

  <!-- Hospital roof -->
  <rect x="225" y="185" width="450" height="44" rx="8" fill="#1E40AF"/>
  <rect x="225" y="229" width="450" height="10" rx="4" fill="#1E3A8A" opacity="0.35"/>

  <!-- Hospital body -->
  <rect x="240" y="239" width="420" height="232" rx="12" fill="#FFFFFF" stroke="#E2E8F0" stroke-width="3"/>

  <!-- Red cross emblem -->
  <rect x="415" y="278" width="70" height="70" rx="14" fill="#FFFFFF" stroke="#FECACA" stroke-width="3"/>
  <rect x="442" y="293" width="16" height="40" rx="3" fill="#DC2626"/>
  <rect x="432" y="303" width="36" height="16" rx="3" fill="#DC2626"/>

  <!-- Windows left -->
  <g>
    <rect x="270" y="292" width="36" height="46" rx="5" fill="#DBEAFE" stroke="#93C5FD" stroke-width="2"/>
    <rect x="325" y="292" width="36" height="46" rx="5" fill="#DBEAFE" stroke="#93C5FD" stroke-width="2"/>
    <rect x="380" y="292" width="36" height="46" rx="5" fill="#DBEAFE" stroke="#93C5FD" stroke-width="2"/>
    <rect x="270" y="366" width="36" height="46" rx="5" fill="#DBEAFE" stroke="#93C5FD" stroke-width="2"/>
    <rect x="325" y="366" width="36" height="46" rx="5" fill="#DBEAFE" stroke="#93C5FD" stroke-width="2"/>
    <rect x="380" y="366" width="36" height="46" rx="5" fill="#DBEAFE" stroke="#93C5FD" stroke-width="2"/>
  </g>

  <!-- Windows right -->
  <g>
    <rect x="515" y="292" width="36" height="46" rx="5" fill="#DBEAFE" stroke="#93C5FD" stroke-width="2"/>
    <rect x="570" y="292" width="36" height="46" rx="5" fill="#DBEAFE" stroke="#93C5FD" stroke-width="2"/>
    <rect x="625" y="292" width="36" height="46" rx="5" fill="#DBEAFE" stroke="#93C5FD" stroke-width="2"/>
    <rect x="515" y="366" width="36" height="46" rx="5" fill="#DBEAFE" stroke="#93C5FD" stroke-width="2"/>
    <rect x="570" y="366" width="36" height="46" rx="5" fill="#DBEAFE" stroke="#93C5FD" stroke-width="2"/>
    <rect x="625" y="366" width="36" height="46" rx="5" fill="#DBEAFE" stroke="#93C5FD" stroke-width="2"/>
  </g>

  <!-- Entrance -->
  <rect x="415" y="388" width="70" height="13" rx="5" fill="#F97316"/>
  <rect x="425" y="401" width="50" height="70" rx="4" fill="#1E3A8A"/>
  <rect x="431" y="407" width="16" height="58" rx="2" fill="#2563EB"/>
  <rect x="453" y="407" width="16" height="58" rx="2" fill="#2563EB"/>
  <rect x="460" y="434" width="5" height="5" rx="2" fill="#FBBF24"/>
  <rect x="390" y="466" width="120" height="8" rx="3" fill="#E2E8F0"/>

  <!-- Ambulance -->
  <g>
    <rect x="130" y="503" width="150" height="40" rx="10" fill="#FFFFFF" stroke="#CBD5E1" stroke-width="2"/>
    <path d="M250 543 L250 525 Q250 515 262 515 L280 515 Q292 515 292 525 L292 543 Z" fill="#FFFFFF" stroke="#CBD5E1" stroke-width="2"/>
    <rect x="130" y="524" width="162" height="9" rx="4" fill="#DC2626"/>
    <rect x="172" y="511" width="10" height="26" rx="3" fill="#DC2626"/>
    <rect x="165" y="518" width="24" height="10" rx="3" fill="#DC2626"/>
    <rect x="255" y="508" width="16" height="7" rx="3" fill="#FBBF24"/>
    <rect x="247" y="509" width="5" height="5" rx="2" fill="#FDE68A"/>
    <circle cx="162" cy="547" r="11" fill="#1F2937"/>
    <circle cx="162" cy="547" r="4.5" fill="#E5E7EB"/>
    <circle cx="262" cy="547" r="11" fill="#1F2937"/>
    <circle cx="262" cy="547" r="4.5" fill="#E5E7EB"/>
  </g>
</svg>
